<svg width="25" height="20" viewBox="0 0 25 20" fill="none" xmlns="http://www.w3.org/2000/svg">
<g clip-path="url(#clip0_22_54)">
<path d="M5.19258 0C3.76611 0 2.71055 1.25343 2.75781 2.61275C2.80322 3.91863 2.74424 5.6101 2.32012 6.98941C1.89473 8.37275 1.1752 9.24902 0 9.36157V10.6318C1.1752 10.7443 1.89473 11.6206 2.32012 13.004C2.74424 14.3833 2.80322 16.0746 2.75781 17.3806C2.71055 18.7397 3.76611 19.9933 5.19277 19.9933H19.8093C21.2358 19.9933 22.2911 18.7399 22.2438 17.3806C22.1985 16.0747 22.2574 14.3833 22.6815 13.004C23.1072 11.6207 23.8248 10.7442 25 10.6318V9.36157C23.8248 9.24902 23.1072 8.37275 22.6816 6.98941C22.2574 5.61029 22.1985 3.91873 22.2438 2.61275C22.2911 1.25363 21.2358 0 19.8093 0H5.19238H5.19258ZM16.9492 12.3072C16.9492 14.1789 15.5586 15.314 13.2508 15.314H9.32207C9.20971 15.314 9.10195 15.2692 9.02251 15.1894C8.94307 15.1096 8.89844 15.0014 8.89844 14.8886V5.10471C8.89842 5.04883 8.90938 4.99351 8.93066 4.94189C8.95195 4.89026 8.98316 4.84336 9.02251 4.80384C9.06186 4.76433 9.10858 4.73299 9.15999 4.71161C9.21141 4.69022 9.26651 4.67922 9.32217 4.67922H13.2283C15.1526 4.67922 16.4155 5.72578 16.4155 7.33245C16.4155 8.4602 15.5659 9.4698 14.4836 9.64657V9.70549C15.9571 9.86775 16.9492 10.8922 16.9492 12.3072ZM12.8223 6.02775H10.5823V9.20422H12.469C13.9274 9.20422 14.7317 8.61461 14.7317 7.56069C14.7317 6.57314 14.04 6.02775 12.8223 6.02775ZM10.5824 10.4646V13.9651H12.9049C14.4232 13.9651 15.2277 13.3534 15.2277 12.2038C15.2277 11.054 14.4009 10.4644 12.8072 10.4644H10.5824V10.4646Z" fill="#7E13F8"/>
</g>
<defs>
<clipPath id="clip0_22_54">
<rect width="25" height="20" fill="white"/>
</clipPath>
</defs>
</svg>
