<svg width="20" height="20" viewBox="0 0 20 20" fill="none" xmlns="http://www.w3.org/2000/svg">
<path d="M9.98777 20L1.82016 18.0007L0 0H20L18.178 17.9979L9.98777 20Z" fill="#264DE4"/>
<path d="M16.6181 16.8519L18.1751 1.47178H10V18.4697L16.6181 16.8519Z" fill="#2965F1"/>
<path d="M4.17265 8.14801L4.39702 10.3557H10V8.14801H4.17265ZM3.72171 3.67956L3.94929 5.88728H10V3.67956H3.72171ZM10 13.8817L9.98904 13.8842L7.2006 13.2204L7.02232 11.4596H4.5089L4.85965 14.9261L9.98849 16.1814L10 16.1786V13.8817Z" fill="#EBEBEB"/>
<path d="M15.8114 8.14801L16.2633 3.67956H9.99138V5.88728H13.5194L13.2916 8.14801H9.99138V10.3557H13.0745L12.7838 13.219L9.9913 13.8836V16.1804L15.1242 14.9261L15.7503 8.74085L15.8114 8.14801Z" fill="white"/>
</svg>
