<svg width="25" height="25" viewBox="0 0 25 25" fill="none" xmlns="http://www.w3.org/2000/svg">
<g clip-path="url(#clip0_22_56)">
<path d="M19.1406 0H5.85938C2.62333 0 0 2.62333 0 5.85938V19.1406C0 22.3767 2.62333 25 5.85938 25H19.1406C22.3767 25 25 22.3767 25 19.1406V5.85938C25 2.62333 22.3767 0 19.1406 0Z" fill="#F03C2E"/>
<mask id="mask0_22_56" style="mask-type:luminance" maskUnits="userSpaceOnUse" x="2" y="2" width="21" height="21">
<path d="M2.73438 2.73438H22.2656V22.2656H2.73438V2.73438Z" fill="white"/>
</mask>
<g mask="url(#mask0_22_56)">
<path d="M21.8969 11.6303L13.3696 3.10303C13.1938 2.92701 12.9697 2.80713 12.7257 2.75858C12.4817 2.71002 12.2288 2.73497 11.999 2.83027C11.8465 2.89351 11.7078 2.98619 11.5911 3.10303L9.8211 4.87305L12.0672 7.11914C12.5897 6.93604 13.1878 7.06113 13.604 7.47744C13.8021 7.67595 13.9405 7.92618 14.0032 8.19955C14.0659 8.47293 14.0504 8.75842 13.9586 9.02344L16.1235 11.1884C16.6473 11.0077 17.2515 11.1242 17.6695 11.5436C17.879 11.7529 18.0216 12.0196 18.0793 12.3101C18.137 12.6005 18.1073 12.9015 17.9939 13.175C17.8418 13.5417 17.5503 13.833 17.1835 13.9849C16.8168 14.1367 16.4047 14.1367 16.0379 13.9849C15.8563 13.9096 15.6912 13.7993 15.5523 13.6603C15.1128 13.2208 15.0042 12.5738 15.2264 12.0324L13.2073 10.0134V15.3266C13.3539 15.3991 13.4878 15.4947 13.604 15.6098C13.8847 15.8905 14.0424 16.2712 14.0424 16.6681C14.0424 17.0651 13.8847 17.4458 13.604 17.7265C13.3233 18.0072 12.9426 18.1648 12.5457 18.1648C12.1487 18.1648 11.768 18.0072 11.4873 17.7265C11.2778 17.5172 11.1351 17.2505 11.0773 16.9601C11.0195 16.6698 11.0491 16.3687 11.1625 16.0952C11.2378 15.9136 11.3482 15.7486 11.4873 15.6098C11.6319 15.4657 11.7925 15.3564 11.9775 15.2832V9.92061C11.7939 9.84557 11.6273 9.73457 11.4873 9.59414C11.2772 9.38421 11.1343 9.11646 11.0769 8.82502C11.0195 8.53358 11.0502 8.23165 11.165 7.95772L8.94952 5.74356L3.10235 11.5846C2.92633 11.7605 2.80644 11.9846 2.75785 12.2287C2.70926 12.4728 2.73416 12.7258 2.8294 12.9557C2.8927 13.1083 2.98545 13.247 3.10235 13.3638L11.6302 21.8903C11.7469 22.0071 11.8855 22.0998 12.0381 22.1631C12.3463 22.2907 12.6926 22.2907 13.0008 22.1631C13.1533 22.0998 13.2919 22.0071 13.4087 21.8903L21.8969 13.4156C22.0138 13.2988 22.1065 13.1602 22.1697 13.0075C22.233 12.8549 22.2656 12.6913 22.2656 12.5261C22.2656 12.3608 22.2331 12.1972 22.1698 12.0445C22.1065 11.8919 22.0138 11.7532 21.8969 11.6364" fill="white"/>
</g>
</g>
<defs>
<clipPath id="clip0_22_56">
<rect width="25" height="25" fill="white"/>
</clipPath>
</defs>
</svg>
