<svg width="20" height="20" viewBox="0 0 20 20" fill="none" xmlns="http://www.w3.org/2000/svg">
<path d="M1.82017 18.0007L0 0H20L18.1774 17.9979L9.98785 20L1.82017 18.0007Z" fill="#E44F26"/>
<path d="M9.99998 18.47L16.618 16.8521L18.1749 1.47214H9.99998V18.47Z" fill="#F1662A"/>
<path d="M9.99998 8.14786H6.68689L6.45846 5.88714H9.99998V3.67929H3.72213L4.3969 10.3557H9.99998V8.14786ZM9.99998 13.8814L9.98864 13.8843L7.20046 13.2207L7.02225 11.46H4.50868L4.85943 14.9257L9.98864 16.1814L9.99998 16.1786V13.8814Z" fill="#EBEBEB"/>
<path d="M9.99108 8.14786V10.3557H13.0741L12.7841 13.2193L9.99108 13.8836V16.1807L15.1243 14.9257L15.1616 14.5529L15.7497 8.74071L15.8112 8.14786H9.99108ZM9.99108 3.67929V5.88714H16.0389L16.2633 3.67929H9.99108Z" fill="white"/>
</svg>
