<svg width="30" height="15" viewBox="0 0 30 15" fill="none" xmlns="http://www.w3.org/2000/svg">
<path d="M15 14.9556C23.2843 14.9556 30 11.6076 30 7.47778C30 3.34792 23.2843 0 15 0C6.71573 0 0 3.34792 0 7.47778C0 11.6076 6.71573 14.9556 15 14.9556Z" fill="url(#paint0_radial_20_53)"/>
<path d="M15 14.4C22.9607 14.4 29.4141 11.3008 29.4141 7.47778C29.4141 3.65474 22.9607 0.555556 15 0.555556C7.03933 0.555556 0.585938 3.65474 0.585938 7.47778C0.585938 11.3008 7.03933 14.4 15 14.4Z" fill="#6181B6"/>
<path d="M17.918 9.72222L18.6328 6.23333C18.7969 5.44444 18.6562 4.85556 18.2344 4.48889C17.8242 4.13333 17.1211 3.95556 16.0898 3.95556H14.8477L15.1992 2.22222C15.2109 2.15556 15.1992 2.08889 15.1523 2.03333C15.1055 1.97778 15.0469 1.95556 14.9766 1.95556H13.2656C13.1484 1.95556 13.0547 2.03333 13.0312 2.13333L12.2695 5.83333C12.1992 5.41111 12.0352 5.05556 11.7539 4.76667C11.25 4.22222 10.4648 3.94444 9.39844 3.94444H6.10547C5.98828 3.94444 5.89453 4.02222 5.87109 4.12222L4.33594 11.6333C4.32422 11.7 4.33594 11.7667 4.38281 11.8222C4.42969 11.8778 4.48828 11.9 4.55859 11.9H6.28125C6.39844 11.9 6.49219 11.8222 6.51562 11.7222L6.89062 9.91111H8.16797C8.83594 9.91111 9.41016 9.84444 9.84375 9.71111C10.3008 9.56667 10.7109 9.33333 11.0742 9.01111C11.3672 8.75556 11.6133 8.46667 11.8008 8.15556L11.4961 9.65556C11.4844 9.72222 11.4961 9.78889 11.543 9.84444C11.5898 9.9 11.6484 9.92222 11.7188 9.92222H13.4297C13.5469 9.92222 13.6406 9.84444 13.6641 9.74444L14.5078 5.63333H15.6797C16.1836 5.63333 16.3242 5.72222 16.3711 5.76667C16.4062 5.8 16.4766 5.93333 16.3945 6.34444L15.7148 9.66667C15.7031 9.73333 15.7148 9.8 15.7617 9.85556C15.8086 9.91111 15.8672 9.93333 15.9375 9.93333H17.6953C17.8008 9.9 17.8945 9.82222 17.918 9.72222ZM9.99609 6.83333C9.89063 7.35556 9.69141 7.73333 9.39844 7.94444C9.10547 8.15556 8.625 8.26667 7.99219 8.26667H7.23047L7.78125 5.57778H8.76562C9.49219 5.57778 9.78516 5.72222 9.90234 5.84444C10.0547 6.02222 10.0898 6.36667 9.99609 6.83333ZM25.2305 4.76667C24.7266 4.22222 23.9414 3.94444 22.875 3.94444H19.5586C19.4414 3.94444 19.3477 4.02222 19.3242 4.12222L17.7891 11.6222C17.7773 11.6889 17.7891 11.7556 17.8359 11.8111C17.8828 11.8667 17.9414 11.8889 18.0117 11.8889H19.7344C19.8516 11.8889 19.9453 11.8111 19.9687 11.7111L20.3438 9.9H21.6211C22.2891 9.9 22.8633 9.83333 23.2969 9.7C23.7539 9.55556 24.1641 9.32222 24.5273 9C24.832 8.73333 25.0898 8.43333 25.2773 8.11111C25.4648 7.78889 25.6055 7.43333 25.6875 7.04445C25.8867 6.07778 25.7344 5.32222 25.2305 4.76667ZM23.4375 6.83333C23.332 7.35556 23.1328 7.73333 22.8398 7.94444C22.5469 8.15556 22.0664 8.26667 21.4336 8.26667H20.6719L21.2227 5.57778H22.207C22.9336 5.57778 23.2266 5.72222 23.3437 5.84444C23.5078 6.02222 23.543 6.36667 23.4375 6.83333Z" fill="white"/>
<path d="M8.76562 5.35556C9.42187 5.35556 9.85547 5.46667 10.0781 5.7C10.3008 5.93333 10.3477 6.32222 10.2305 6.87778C10.1133 7.45556 9.87891 7.87778 9.53906 8.12222C9.19922 8.36667 8.68359 8.48889 7.99219 8.48889H6.94922L7.59375 5.35556H8.76562ZM4.57031 11.6667H6.29297L6.70312 9.67778H8.17969C8.83594 9.67778 9.36328 9.61111 9.78516 9.47778C10.207 9.34445 10.582 9.13333 10.9336 8.82222C11.2266 8.56667 11.4609 8.28889 11.6367 7.98889C11.8125 7.68889 11.9414 7.35556 12.0117 6.98889C12.1992 6.1 12.0586 5.41111 11.6016 4.91111C11.1445 4.41111 10.418 4.16667 9.42188 4.16667H6.10547L4.57031 11.6667ZM13.2773 2.17778H14.9883L14.5781 4.16667H16.1016C17.0625 4.16667 17.7188 4.32222 18.082 4.64444C18.4453 4.96667 18.5508 5.47778 18.4102 6.18889L17.6953 9.67778H15.9609L16.6406 6.35556C16.7227 5.97778 16.6875 5.72222 16.5586 5.58889C16.4297 5.45556 16.1367 5.37778 15.7031 5.37778H14.332L13.4531 9.67778H11.7422L13.2773 2.17778ZM22.207 5.35556C22.8633 5.35556 23.2969 5.46667 23.5195 5.7C23.7422 5.93333 23.7891 6.32222 23.6719 6.87778C23.5547 7.45556 23.3203 7.87778 22.9805 8.12222C22.6406 8.36667 22.125 8.48889 21.4336 8.48889H20.3906L21.0352 5.35556H22.207ZM18.0117 11.6667H19.7344L20.1445 9.67778H21.6211C22.2773 9.67778 22.8047 9.61111 23.2266 9.47778C23.6484 9.34445 24.0234 9.13333 24.375 8.82222C24.668 8.56667 24.9023 8.28889 25.0781 7.98889C25.2539 7.68889 25.3828 7.35556 25.4531 6.98889C25.6406 6.1 25.5 5.41111 25.043 4.91111C24.5859 4.41111 23.8594 4.16667 22.8633 4.16667H19.5469L18.0117 11.6667Z" fill="#000004"/>
<defs>
<radialGradient id="paint0_radial_20_53" cx="0" cy="0" r="1" gradientUnits="userSpaceOnUse" gradientTransform="translate(9.00604 2.62972) scale(19.6987 18.6773)">
<stop stop-color="white"/>
<stop offset="0.5" stop-color="#4C6B97"/>
<stop offset="1" stop-color="#231F20"/>
</radialGradient>
</defs>
</svg>
