<svg width="20" height="28" viewBox="0 0 20 28" fill="none" xmlns="http://www.w3.org/2000/svg">
<path d="M2.525 13.256C4.91302 14.0954 7.43227 14.4994 9.963 14.449C12.4938 14.4991 15.013 14.0947 17.401 13.255C19.265 12.528 19.926 11.72 19.926 11.255V7.7C19.2743 8.13642 18.5752 8.4974 17.842 8.776C15.3154 9.6807 12.6463 10.1218 9.963 10.078C7.27994 10.121 4.61105 9.6806 2.084 8.778C1.35047 8.49938 0.651249 8.13769 0 7.7V11.25C0 11.724 0.663 12.528 2.525 13.256ZM2.525 19.961C3.36861 20.2827 4.23854 20.5306 5.125 20.702C6.71904 21.0104 8.33942 21.1621 9.963 21.155C11.5865 21.1624 13.2069 21.011 14.801 20.703C15.6875 20.5316 16.5574 20.2837 17.401 19.962C19.265 19.235 19.926 18.427 19.926 17.962V14.572C19.3873 14.8961 18.8211 15.1722 18.234 15.397C15.5798 16.3368 12.7782 16.7917 9.963 16.74C7.14749 16.7901 4.34591 16.3335 1.692 15.392C1.10512 15.1666 0.538984 14.8906 0 14.567V17.96C0 18.426 0.663 19.231 2.525 19.961ZM9.963 28C15.463 28 19.926 26.256 19.926 24.106V21.269C19.4359 21.5644 18.9226 21.8192 18.391 22.031L18.234 22.094C15.5803 23.0365 12.7787 23.4942 9.963 23.445C7.1472 23.4956 4.34536 23.0379 1.692 22.094C1.638 22.074 1.586 22.051 1.535 22.031C1.00343 21.8192 0.490049 21.5644 0 21.269V24.106C0 26.256 4.463 28 9.963 28Z" fill="#FFDA44"/>
<path d="M9.963 7.788C15.4654 7.788 19.926 6.0446 19.926 3.894C19.926 1.7434 15.4654 0 9.963 0C4.46059 0 0 1.7434 0 3.894C0 6.0446 4.46059 7.788 9.963 7.788Z" fill="#FFDA44"/>
</svg>
